<svg version="1.1" xmlns="http://www.w3.org/2000/svg" style="display: block;" viewBox="0 0 4096 4096" width="4096" height="4096" preserveAspectRatio="none">
<path transform="translate(0,0)" fill="rgb(240,240,240)" d="M 2470.04 238.916 C 2511.62 235.745 2564.82 238.059 2606.11 242.306 C 2837.05 265.894 3049.18 380.231 3195.84 560.176 C 3344.37 743.29 3406.89 967.362 3382.59 1200.66 C 3514.68 1361.68 3592.4 1534.14 3602.08 1744.92 C 3612.99 1970.7 3532.6 2191.38 3379.02 2357.24 C 3399.72 2421.06 3411.93 2463.65 3419.4 2531.01 C 3440.41 2739.56 3377.91 2947.94 3245.59 3110.5 C 3184.36 3186.85 3088.16 3273.16 3001.26 3319.02 C 2943.08 3349.72 2827.69 3388.43 2764.37 3410.95 L 2451.51 3524.69 L 1945.53 3708.89 L 1779.9 3769.26 C 1746.7 3781.35 1714.02 3793.8 1680.3 3804.46 C 1631.94 3819.73 1593.68 3823.72 1543.53 3829.25 C 1489.49 3832.52 1442.98 3832.73 1388.81 3826.96 C 1167.67 3803.39 964.948 3692.92 825.263 3519.87 C 685.486 3346.26 620.357 3124.25 644.191 2902.64 C 611.656 2865.98 582.266 2830.41 555.325 2789.41 C 339.991 2461.75 367.928 2049.76 615.885 1750.11 C 592.727 1680.33 579.252 1607.71 575.838 1534.28 C 565.201 1304.44 646.658 1079.85 802.162 910.272 C 858.458 848.301 932.884 785.785 1006.36 744.333 C 1017.25 738.191 1057.52 724.347 1070.74 719.552 L 1181.74 679.322 L 1540.65 548.747 L 2086.4 350.087 L 2260.32 286.633 C 2290.36 275.659 2328.7 260.944 2358.39 251.785 C 2382.7 244.286 2443.15 240.173 2470.04 238.916 z"/>
</svg>