<svg version="1.1" xmlns="http://www.w3.org/2000/svg" style="display: block;" viewBox="0 0 4000 4000" width="4000" height="4000" preserveAspectRatio="none">
<path transform="translate(0,0)" fill="rgb(239,240,239)" d="M 2412.33 233.312 C 2451.66 230.25 2503.52 232.478 2542.58 236.395 C 2768.63 258.837 2976.46 370.3 3120.21 546.191 C 3266.01 725.395 3326.8 943.988 3303.32 1172.55 C 3432.41 1330.31 3508.1 1497.68 3517.65 1704.08 C 3528.27 1924.54 3449.78 2140.01 3299.83 2301.97 C 3319.71 2364.18 3331.67 2404.79 3339.06 2470.13 C 3360.05 2673.97 3299.28 2877.8 3170.09 3036.87 C 3110.15 3111.82 3016.09 3196.2 2930.89 3241.22 C 2874.59 3270.96 2762.49 3308.58 2701.28 3330.36 L 2386.24 3444.9 L 1895.31 3623.64 L 1736.18 3681.61 C 1704.08 3693.3 1672.47 3705.34 1639.85 3715.6 C 1592.76 3730.41 1556.12 3734.1 1507.33 3739.47 C 1458.83 3743.09 1410.11 3742.53 1361.71 3737.8 C 1145.23 3716.19 946.25 3609.31 808.696 3440.76 C 670.358 3270.76 605.692 3052.53 629.086 2834.61 C 597.611 2798.92 568.96 2764.62 542.816 2724.79 C 331.479 2402.89 359.561 2003.4 601.47 1709.04 C 579.021 1641.46 565.893 1571.13 562.45 1500.01 C 551.662 1275.83 630.578 1056.59 781.76 890.711 C 836.8 829.78 908.762 769.337 980.612 728.103 C 993.148 720.908 1030.68 708.185 1045.65 702.76 L 1147.93 665.7 L 1492.59 540.296 L 2034.67 343.011 L 2203.72 281.349 C 2233.85 270.31 2271.51 255.891 2301.45 246.387 C 2326 238.593 2385.14 234.686 2412.33 233.312 z M 1507.37 3553.22 C 1518.17 3551.87 1553.79 3547.93 1562.77 3545.31 C 1595.97 3535.58 1632.59 3521.34 1665.35 3509.41 L 1862.27 3437.65 L 2406.22 3239.6 L 2692.14 3135.6 C 2732 3121.16 2808.27 3098.11 2842.99 3078.21 C 3051.59 2958.67 3183.96 2721.22 3153.71 2481.44 C 3149.58 2447.58 3142.1 2414.22 3131.38 2381.84 C 3113.64 2328.04 3074.77 2277.71 3121.5 2221.68 C 3153.13 2183.75 3179.68 2161.32 3210.26 2119.74 C 3307.15 1986.36 3349.17 1820.87 3327.64 1657.41 C 3311.53 1533.27 3261.48 1415.98 3183.01 1318.45 C 3165.4 1296.94 3124.03 1260.65 3117.87 1238.13 C 3107.31 1199.5 3121.67 1136.95 3123.04 1092.59 C 3128.58 883.432 3033.4 684.322 2867.15 557.282 C 2737.5 457.809 2576.22 408.624 2413.12 418.817 C 2393.88 420.404 2365.02 421.831 2347.45 427.828 C 2267.44 455.15 2187.7 486.241 2108.27 514.932 L 1536.09 722.568 L 1218.34 839.162 L 1121.3 874.179 C 1105.32 879.905 1070.16 891.023 1057.32 898.871 C 1001.86 932.775 946.026 983.226 904.494 1032.29 C 791.044 1165.25 735.151 1337.88 749.147 1512.11 C 752.134 1547.82 759.995 1594.88 769.761 1628.57 C 786.076 1684.84 826.462 1736.49 777.505 1792.54 C 753.338 1820.2 738.679 1832.23 715.755 1863.49 C 620.447 1992.47 575.307 2151.72 588.753 2311.54 C 600.2 2448.28 653.99 2578.06 742.638 2682.81 C 763.738 2707.52 800.443 2738.14 811.325 2766.6 C 826.614 2806.58 811.073 2859.04 809.931 2904.28 C 804.155 3096.93 886.563 3281.69 1033.76 3406.12 C 1139.82 3495.92 1272.45 3548.38 1411.24 3555.43 C 1448.16 3557.29 1471.43 3555.2 1507.37 3553.22 z"/>
</svg>